<svg width="42" height="52" viewBox="0 0 42 52" fill="none" xmlns="http://www.w3.org/2000/svg">
<path d="M35.8495 6.30846C44.0502 14.7197 44.0501 28.3577 35.8495 36.769L21 52L6.15045 36.769C-2.05015 28.3577 -2.05015 14.7197 6.15046 6.30846C14.3511 -2.10282 27.6474 -2.10282 35.848 6.30846H35.8495Z" fill="#516875"/>
<path fill-rule="evenodd" clip-rule="evenodd" d="M10.3935 10.3935C14.372 10.3935 18.1871 8.8129 21 6C23.8129 8.8129 27.628 10.3935 31.6065 10.3935C31.6065 14.372 33.1871 18.1871 36 21C33.1871 23.8129 31.6065 27.628 31.6065 31.6065C27.628 31.6065 23.8129 33.1871 21 36C18.1871 33.1871 14.372 31.6065 10.3935 31.6065C10.3935 27.628 8.8129 23.8129 6 21C8.8129 18.1871 10.3935 14.372 10.3935 10.3935ZM21 9.33333C18.8122 11.5211 15.8449 12.7505 12.7505 12.7505C12.7505 15.8449 11.5211 18.8122 9.33333 21C11.5211 23.1878 12.7505 26.1551 12.7505 29.2495C15.8449 29.2495 18.8122 30.4789 21 32.6667C23.1878 30.4789 26.1551 29.2495 29.2495 29.2495C29.2495 26.1551 30.4789 23.1878 32.6667 21C30.4789 18.8122 29.2495 15.8449 29.2495 12.7505C26.1551 12.7505 23.1878 11.5211 21 9.33333Z" fill="#7B93A4"/>
</svg>
