<svg width="36" height="36" viewBox="0 0 36 36" fill="none" xmlns="http://www.w3.org/2000/svg">
<path d="M25.374 23.3117C24.8464 23.8392 23.9877 23.8278 23.4744 23.2865C22.98 22.7651 22.9909 21.9448 23.499 21.4367L25.971 18.9647H15.4466C14.7135 18.9647 14.1191 18.3703 14.1191 17.6372C14.1191 16.9041 14.7135 16.3098 15.4466 16.3098H25.971L23.499 13.8377C22.9909 13.3297 22.98 12.5093 23.4744 11.9879C23.9877 11.4466 24.8464 11.4352 25.374 11.9627L31.0484 17.6372L25.374 23.3117Z" fill="#38B9FF"/>
<path fill-rule="evenodd" clip-rule="evenodd" d="M7.27051 8.35269C7.27051 7.60562 7.87613 7 8.6232 7H17.1983C17.9454 7 18.551 7.60562 18.551 8.35269C18.551 9.09976 17.9454 9.70539 17.1983 9.70539H9.97589V25.4466H17.1983C17.9454 25.4466 18.551 26.0522 18.551 26.7993C18.551 27.5464 17.9454 28.152 17.1983 28.152H8.6232C7.87613 28.152 7.27051 27.5464 7.27051 26.7993V8.35269Z" fill="#38B9FF"/>
</svg>
