<svg width="22" height="27" viewBox="0 0 22 27" fill="none" xmlns="http://www.w3.org/2000/svg">
<path d="M1.4 22.8C0.626801 22.8 0 22.1732 0 21.4C0 20.6268 0.626801 20 1.4 20H2.75V11.2C2.75 9.26333 3.32292 7.5425 4.46875 6.0375C5.61458 4.5325 7.10417 3.54667 8.9375 3.08V2.1C8.9375 1.51667 9.13802 1.02083 9.53906 0.6125C9.9401 0.204167 10.4271 0 11 0C11.5729 0 12.0599 0.204167 12.4609 0.6125C12.862 1.02083 13.0625 1.51667 13.0625 2.1V3.08C14.8958 3.54667 16.3854 4.5325 17.5312 6.0375C18.6771 7.5425 19.25 9.26333 19.25 11.2V20H20.6C21.3732 20 22 20.6268 22 21.4C22 22.1732 21.3732 22.8 20.6 22.8H1.4ZM11 27C10.2437 27 9.59635 26.7258 9.05781 26.1775C8.51927 25.6292 8.25 24.97 8.25 24.2H13.75C13.75 24.97 13.4807 25.6292 12.9422 26.1775C12.4036 26.7258 11.7563 27 11 27ZM5.5 20H16.5V11.2C16.5 9.66 15.9615 8.34167 14.8844 7.245C13.8073 6.14833 12.5125 5.6 11 5.6C9.4875 5.6 8.19271 6.14833 7.11563 7.245C6.03854 8.34167 5.5 9.66 5.5 11.2V20Z" fill="#38B9FF"/>
</svg>
