<svg width="24" height="24" viewBox="0 0 24 24" fill="none" xmlns="http://www.w3.org/2000/svg">
<path d="M14.5 13.25C14.5 14.6307 13.3809 15.75 12 15.75C10.6191 15.75 9.5 14.6307 9.5 13.25C9.5 11.8693 10.6191 10.75 12 10.75C13.3809 10.75 14.5 11.8693 14.5 13.25Z" fill="#92A5B3"/>
<path fill-rule="evenodd" clip-rule="evenodd" d="M7.72361 3.55279C7.893 3.214 8.23926 3 8.61803 3H15.382C15.7607 3 16.107 3.214 16.2764 3.55279L17.5 6H20C21.1046 6 22 6.89543 22 8V18.5C22 19.6046 21.1046 20.5 20 20.5H4C2.89543 20.5 2 19.6046 2 18.5V8C2 6.89543 2.89543 6 4 6H6.5L7.72361 3.55279ZM16.5 13.25C16.5 15.7353 14.4854 17.75 12 17.75C9.51465 17.75 7.5 15.7353 7.5 13.25C7.5 10.7647 9.51465 8.75 12 8.75C14.4854 8.75 16.5 10.7647 16.5 13.25ZM10.75 6C10.3358 6 10 6.33579 10 6.75C10 7.16421 10.3358 7.5 10.75 7.5H13.25C13.6642 7.5 14 7.16421 14 6.75C14 6.33579 13.6642 6 13.25 6H10.75Z" fill="#92A5B3"/>
</svg>
