<svg width="18" height="18" viewBox="0 0 18 18" fill="none" xmlns="http://www.w3.org/2000/svg">
<rect width="18" height="18" rx="9" fill="#A9BAC6"/>
<path d="M9 14.5C8.725 14.5 8.48958 14.4021 8.29375 14.2063C8.09792 14.0104 8 13.775 8 13.5C8 13.225 8.09792 12.9896 8.29375 12.7938C8.48958 12.5979 8.725 12.5 9 12.5C9.275 12.5 9.51042 12.5979 9.70625 12.7938C9.90208 12.9896 10 13.225 10 13.5C10 13.775 9.90208 14.0104 9.70625 14.2063C9.51042 14.4021 9.275 14.5 9 14.5ZM8 11L7.5 4H10.5L10 11H8Z" fill="white"/>
</svg>
