<svg width="36" height="36" viewBox="0 0 36 36" fill="none" xmlns="http://www.w3.org/2000/svg">
<path fill-rule="evenodd" clip-rule="evenodd" d="M27.5709 8.42914C28.143 9.00133 28.143 9.92902 27.5709 10.5012L11.5012 26.5709C10.929 27.143 10.0013 27.143 9.42914 26.5709C8.85695 25.9987 8.85695 25.071 9.42914 24.4988L25.4988 8.42914C26.071 7.85695 26.9987 7.85695 27.5709 8.42914Z" fill="#3E4E5B" stroke="#3E4E5B" stroke-width="0.5" stroke-linecap="round"/>
<path fill-rule="evenodd" clip-rule="evenodd" d="M9.42914 8.42914C10.0013 7.85695 10.929 7.85695 11.5012 8.42914L27.5709 24.4988C28.143 25.071 28.143 25.9987 27.5709 26.5709C26.9987 27.143 26.071 27.143 25.4988 26.5709L9.42914 10.5012C8.85695 9.92902 8.85695 9.00133 9.42914 8.42914Z" fill="#3E4E5B" stroke="#3E4E5B" stroke-width="0.5" stroke-linecap="round"/>
</svg>
