<svg width="24" height="24" viewBox="0 0 24 24" fill="none" xmlns="http://www.w3.org/2000/svg">
<path d="M4 11.4782C5.95728 13.8261 8.97864 15 12 15C15.0214 15 18.0427 13.8261 20 11.4782" stroke="#38B9FF" stroke-width="2" stroke-linecap="round"/>
<path d="M13 18.7796C13 19.3318 12.5523 19.7796 12 19.7796C11.4477 19.7796 11 19.3318 11 18.7796H13ZM11 15.2796V14.2796H13V15.2796H11ZM11 18.7796V15.2796H13V18.7796H11Z" fill="#38B9FF"/>
<path d="M6.92652 17.6558C6.71872 18.1675 6.13546 18.4139 5.62375 18.2061C5.11205 17.9983 4.86569 17.415 5.07348 16.9033L6.92652 17.6558ZM6.20222 14.1238L6.57847 13.1972L8.43151 13.9497L8.05526 14.8762L6.20222 14.1238ZM5.07348 16.9033L6.20222 14.1238L8.05526 14.8762L6.92652 17.6558L5.07348 16.9033Z" fill="#38B9FF"/>
<path d="M17.2024 17.6558C17.4102 18.1675 17.9935 18.4139 18.5052 18.2061C19.0169 17.9983 19.2632 17.415 19.0554 16.9033L17.2024 17.6558ZM17.9267 14.1238L17.5504 13.1972L15.6974 13.9497L16.0736 14.8762L17.9267 14.1238ZM19.0554 16.9033L17.9267 14.1238L16.0736 14.8762L17.2024 17.6558L19.0554 16.9033Z" fill="#38B9FF"/>
</svg>
