<svg width="27" height="27" viewBox="0 0 27 27" fill="none" xmlns="http://www.w3.org/2000/svg">
<mask id="mask0_250_3208" style="mask-type:alpha" maskUnits="userSpaceOnUse" x="0" y="0" width="27" height="27">
<rect width="27" height="27" fill="#D9D9D9"/>
</mask>
<g mask="url(#mask0_250_3208)">
<path d="M4.5 22.5C3.88125 22.5 3.35156 22.2797 2.91094 21.8391C2.47031 21.3984 2.25 20.8687 2.25 20.25V6.75C2.25 6.13125 2.47031 5.60156 2.91094 5.16094C3.35156 4.72031 3.88125 4.5 4.5 4.5H22.5C23.1187 4.5 23.6484 4.72031 24.0891 5.16094C24.5297 5.60156 24.75 6.13125 24.75 6.75V20.25C24.75 20.8687 24.5297 21.3984 24.0891 21.8391C23.6484 22.2797 23.1187 22.5 22.5 22.5H4.5ZM13.5 15.1875L4.5 9.5625V20.25H22.5V9.5625L13.5 15.1875ZM13.5 12.375L22.5 6.75H4.5L13.5 12.375ZM4.5 9.5625V6.75V20.25V9.5625Z" fill="#38B9FF"/>
</g>
</svg>
