<svg width="36" height="36" viewBox="0 0 36 36" fill="none" xmlns="http://www.w3.org/2000/svg">
<mask id="mask0_176_3027" style="mask-type:alpha" maskUnits="userSpaceOnUse" x="0" y="0" width="36" height="36">
<rect width="36" height="36" fill="#D9D9D9"/>
</mask>
<g mask="url(#mask0_176_3027)">
<path d="M6 30C5.175 30 4.46875 29.7063 3.88125 29.1188C3.29375 28.5312 3 27.825 3 27V9C3 8.175 3.29375 7.46875 3.88125 6.88125C4.46875 6.29375 5.175 6 6 6H30C30.825 6 31.5312 6.29375 32.1188 6.88125C32.7063 7.46875 33 8.175 33 9V27C33 27.825 32.7063 28.5312 32.1188 29.1188C31.5312 29.7063 30.825 30 30 30H6ZM18 20.25L6 12.75V27H30V12.75L18 20.25ZM18 16.5L30 9H6L18 16.5ZM6 12.75V9V27V12.75Z" fill="#38B9FF"/>
</g>
</svg>
