<svg width="36" height="36" viewBox="0 0 36 36" fill="none" xmlns="http://www.w3.org/2000/svg">
<path d="M16.455 21.3498C16.455 19.8648 16.5879 18.7969 16.8538 18.1461C17.1196 17.4952 17.6833 16.7848 18.545 16.0148C19.2967 15.3548 19.8696 14.7819 20.2638 14.2961C20.6579 13.8102 20.855 13.2556 20.855 12.6323C20.855 11.8806 20.6029 11.2573 20.0988 10.7623C19.5946 10.2673 18.8933 10.0198 17.995 10.0198C17.06 10.0198 16.3496 10.304 15.8638 10.8723C15.3779 11.4406 15.0342 12.0181 14.8325 12.6048L12 11.3948C12.385 10.2215 13.0908 9.20397 14.1175 8.3423C15.1442 7.48064 16.4367 7.0498 17.995 7.0498C19.92 7.0498 21.4004 7.58605 22.4363 8.65855C23.4721 9.73105 23.99 11.019 23.99 12.5223C23.99 13.439 23.7929 14.2227 23.3988 14.8736C23.0046 15.5244 22.3858 16.2623 21.5425 17.0873C20.6442 17.949 20.0988 18.6044 19.9063 19.0536C19.7138 19.5027 19.6175 20.2681 19.6175 21.3498H16.455ZM17.995 27.9498C17.39 27.9498 16.8721 27.7344 16.4413 27.3036C16.0104 26.8727 15.795 26.3548 15.795 25.7498C15.795 25.1448 16.0104 24.6269 16.4413 24.1961C16.8721 23.7652 17.39 23.5498 17.995 23.5498C18.6 23.5498 19.1179 23.7652 19.5488 24.1961C19.9796 24.6269 20.195 25.1448 20.195 25.7498C20.195 26.3548 19.9796 26.8727 19.5488 27.3036C19.1179 27.7344 18.6 27.9498 17.995 27.9498Z" fill="#516875"/>
</svg>
