<svg width="36" height="36" viewBox="0 0 36 36" fill="none" xmlns="http://www.w3.org/2000/svg">
<path d="M11.6667 23.3333H18.6667C19.311 23.3333 19.8333 22.811 19.8333 22.1667C19.8333 21.5223 19.311 21 18.6667 21H11.6667V23.3333ZM11.6667 18.6667H22.1667C22.811 18.6667 23.3333 18.1443 23.3333 17.5C23.3333 16.8557 22.811 16.3333 22.1667 16.3333H11.6667V18.6667ZM11.6667 14H22.1667C22.811 14 23.3333 13.4777 23.3333 12.8333C23.3333 12.189 22.811 11.6667 22.1667 11.6667H11.6667V14ZM9.33333 28C8.69167 28 8.14236 27.7715 7.68542 27.3146C7.22847 26.8576 7 26.3083 7 25.6667V9.33333C7 8.69167 7.22847 8.14236 7.68542 7.68542C8.14236 7.22847 8.69167 7 9.33333 7H25.6667C26.3083 7 26.8576 7.22847 27.3146 7.68542C27.7715 8.14236 28 8.69167 28 9.33333V25.6667C28 26.3083 27.7715 26.8576 27.3146 27.3146C26.8576 27.7715 26.3083 28 25.6667 28H9.33333ZM9.33333 25.6667H25.6667V9.33333H9.33333V25.6667Z" fill="#516875"/>
</svg>
