<svg width="36" height="36" viewBox="0 0 36 36" fill="none" xmlns="http://www.w3.org/2000/svg">
<path d="M13 26.5V23.5H27.5C28.3284 23.5 29 24.1716 29 25C29 25.8284 28.3284 26.5 27.5 26.5H13ZM13 19.5V16.5H27.5C28.3284 16.5 29 17.1716 29 18C29 18.8284 28.3284 19.5 27.5 19.5H13ZM13 12.5V9.5H27.5C28.3284 9.5 29 10.1716 29 11C29 11.8284 28.3284 12.5 27.5 12.5H13Z" fill="#38B9FF"/>
<circle cx="9" cy="11" r="2" fill="#38B9FF"/>
<circle cx="9" cy="18" r="2" fill="#38B9FF"/>
<circle cx="9" cy="25" r="2" fill="#38B9FF"/>
</svg>
