<svg width="36" height="36" viewBox="0 0 36 36" fill="none" xmlns="http://www.w3.org/2000/svg">
<path fill-rule="evenodd" clip-rule="evenodd" d="M7.99885 11.2073C9.03444 10.1421 10.2944 9.6084 11.7741 9.6084H13.2574C13.9636 9.6084 14.5361 10.1809 14.5361 10.8871C14.5361 11.5934 13.9636 12.1659 13.2574 12.1659H11.7741C10.9784 12.1659 10.3086 12.4475 9.75969 13.012C9.21069 13.5767 8.93615 14.2668 8.93615 15.0871C8.93615 15.9075 9.21069 16.5976 9.75969 17.1623C10.3086 17.7268 10.9784 18.0084 11.7741 18.0084H24.9761L21.7235 14.6395C21.254 14.1532 21.2553 13.382 21.7265 12.8974C22.2181 12.3918 23.0301 12.3918 23.5216 12.8974L29.7339 19.2871L23.5352 25.6629C23.0373 26.1751 22.2136 26.1715 21.7202 25.6549C21.252 25.1647 21.2554 24.3919 21.728 23.9059L24.9752 20.5659H11.7741C10.2944 20.5659 9.03444 20.0322 7.99885 18.967C6.96334 17.902 6.44531 16.6071 6.44531 15.0871C6.44531 13.5672 6.96334 12.2723 7.99885 11.2073Z" fill="#516875"/>
</svg>
