<svg width="130" height="31" viewBox="0 0 130 31" fill="none" xmlns="http://www.w3.org/2000/svg">
<path d="M129.999 15.2815V30.4255H14.7846C12.4179 30.4255 10.0684 29.889 7.98207 28.7614C7.83759 28.684 7.69527 28.6033 7.55402 28.5204C2.89503 25.7952 0 20.7232 0 15.2815V0H114.89C117.544 0 120.158 0.706652 122.446 2.04581C127.105 4.77102 130 9.84304 130 15.2826L129.999 15.2815Z" fill="#38B9FF"/>
<path d="M124.387 20.1577C123.373 20.1577 122.553 20.9887 122.553 22.0127C122.553 23.0367 123.374 23.8677 124.387 23.8677C125.399 23.8677 126.221 23.0367 126.221 22.0127C126.221 20.9887 125.399 20.1577 124.387 20.1577Z" fill="white"/>
<path d="M102.625 3.4486H99.3433V8.69074H95.2051C92.5645 8.69074 90.1019 10.1291 88.7778 12.4432C88.1287 13.5785 87.7859 14.8762 87.7859 16.1957C87.7859 18.199 88.5578 20.0845 89.9585 21.5022C91.3601 22.9188 93.2233 23.6996 95.2051 23.6996C96.5097 23.6996 97.7917 23.3528 98.9152 22.6963C99.4759 22.368 99.9924 21.9667 100.452 21.5022C101.852 20.0845 102.624 18.2001 102.624 16.1957V3.44969L102.625 3.4486ZM95.2051 20.3789C92.9236 20.3789 91.0669 18.5011 91.0669 16.1935C91.0669 13.886 92.9236 12.0081 95.2051 12.0081H99.3433V16.1935C99.3433 18.5011 97.4866 20.3789 95.2051 20.3789ZM11.4511 3.4486H8.16895V16.1946C8.16895 18.1979 8.94095 20.0834 10.3416 21.5011C10.8009 21.9657 11.3184 22.368 11.878 22.6952C13.0005 23.3517 14.2835 23.6985 15.5882 23.6985C17.5689 23.6985 19.4331 22.9177 20.8348 21.5011C22.2354 20.0834 23.0074 18.199 23.0074 16.1946C23.0074 14.8751 22.6645 13.5785 22.0155 12.4421C20.6925 10.128 18.2298 8.68964 15.5882 8.68964H11.45V3.44751L11.4511 3.4486ZM15.5893 20.3789C13.3078 20.3789 11.4511 18.5011 11.4511 16.1935V12.0081H15.5893C17.8708 12.0081 19.7275 13.886 19.7275 16.1935C19.7275 18.5011 17.8708 20.3789 15.5893 20.3789ZM78.5121 5.50969L73.2655 10.8162C71.8648 12.2327 71.0928 14.1183 71.0928 16.1226C71.0928 16.7791 71.178 17.4334 71.3451 18.0659C71.6794 19.3342 72.3447 20.4956 73.2665 21.4291C74.6671 22.8457 76.5314 23.6265 78.5132 23.6265C80.496 23.6265 82.3581 22.8446 83.7598 21.4291C84.6816 20.4956 85.3458 19.3342 85.6812 18.0659C86.3637 15.4825 85.6272 12.706 83.7598 10.8162L78.5132 5.50969H78.5121ZM78.5121 20.3059C77.4058 20.3059 76.3664 19.8708 75.5868 19.0812C74.8073 18.2917 74.376 17.2415 74.376 16.1226C74.376 15.0038 74.8062 13.9525 75.5868 13.1641L78.5121 10.2055L81.4373 13.1641C83.0514 14.7955 83.0514 17.4509 81.4373 19.0823C80.6566 19.8718 79.6183 20.307 78.5121 20.307V20.3059ZM61.818 5.50969L56.5714 10.8162C55.1707 12.2327 54.3987 14.1183 54.3987 16.1226C54.3987 16.7791 54.4839 17.4334 54.651 18.0659C54.9853 19.3342 55.6506 20.4956 56.5724 21.4291C57.973 22.8457 59.8373 23.6265 61.819 23.6265C63.8019 23.6265 65.664 22.8446 67.0657 21.4291C67.9876 20.4956 68.6528 19.3342 68.9871 18.0659C69.6696 15.4825 68.9332 12.706 67.0657 10.8162L61.819 5.50969H61.818ZM61.818 20.3059C60.7117 20.3059 59.6723 19.8708 58.8928 19.0812C58.1121 18.2917 57.6819 17.2415 57.6819 16.1226C57.6819 15.0038 58.1121 13.9525 58.8928 13.1641L61.818 10.2055L64.7432 13.1641C66.3573 14.7955 66.3573 17.4509 64.7432 19.0823C63.9626 19.8718 62.9242 20.307 61.818 20.307V20.3059ZM111.899 8.68964C109.918 8.68964 108.054 9.47046 106.653 10.887C105.252 12.3047 104.48 14.1891 104.48 16.1935C104.48 17.512 104.823 18.8097 105.472 19.946C105.796 20.5131 106.193 21.0354 106.653 21.5C108.054 22.9166 109.917 23.6974 111.899 23.6974H119.318V16.1935C119.318 13.5228 117.896 11.0321 115.608 9.69292C114.486 9.03643 113.203 8.68964 111.898 8.68964H111.899ZM111.899 20.3789C109.618 20.3789 107.761 18.5011 107.761 16.1935C107.761 13.886 109.618 12.0081 111.899 12.0081C114.181 12.0081 116.037 13.886 116.037 16.1935V20.3789H111.899ZM51.9016 10.0615H48.6195V16.2666C48.6195 18.5741 46.7628 20.452 44.4813 20.452C42.1998 20.452 40.3431 18.5741 40.3431 16.2666V10.0615H37.0609V16.2666C37.0609 18.5741 35.2042 20.452 32.9227 20.452C30.6412 20.452 28.7845 18.5741 28.7845 16.2666V10.0615H25.5024V16.2666C25.5024 18.9373 26.9246 21.428 29.2126 22.7672C30.335 23.4237 31.6181 23.7705 32.9227 23.7705C34.2274 23.7705 35.5094 23.4237 36.6329 22.7672C37.3294 22.3593 37.9537 21.8413 38.4874 21.2295L38.7009 20.9842L38.9144 21.2295C39.4481 21.8413 40.0724 22.3582 40.7689 22.7672C41.8914 23.4237 43.1745 23.7705 44.4791 23.7705C45.7838 23.7705 47.0658 23.4237 48.1893 22.7672C50.4773 21.4291 51.8994 18.9384 51.8994 16.2666V10.0615H51.9016Z" fill="white"/>
</svg>
