<svg width="36" height="36" viewBox="0 0 36 36" fill="none" xmlns="http://www.w3.org/2000/svg">
<mask id="mask0_389_6566" style="mask-type:alpha" maskUnits="userSpaceOnUse" x="0" y="0" width="36" height="36">
<rect width="36" height="36" fill="#D9D9D9"/>
</mask>
<g mask="url(#mask0_389_6566)">
<path d="M7.58333 26C6.70888 26 6 25.2911 6 24.4167C6 23.5422 6.70888 22.8333 7.58333 22.8333H28.4167C29.2911 22.8333 30 23.5422 30 24.4167C30 25.2911 29.2911 26 28.4167 26H7.58333ZM7.58333 19.0833C6.70888 19.0833 6 18.3745 6 17.5C6 16.6255 6.70888 15.9167 7.58333 15.9167H28.4167C29.2911 15.9167 30 16.6255 30 17.5C30 18.3745 29.2911 19.0833 28.4167 19.0833H7.58333ZM7.58333 12.1667C6.70888 12.1667 6 11.4578 6 10.5833C6 9.70888 6.70888 9 7.58333 9H28.4167C29.2911 9 30 9.70888 30 10.5833C30 11.4578 29.2911 12.1667 28.4167 12.1667H7.58333Z" fill="#38B9FF"/>
</g>
</svg>
