<svg width="36" height="36" viewBox="0 0 36 36" fill="none" xmlns="http://www.w3.org/2000/svg">
<path d="M12.2751 22.7751C12.574 22.7751 12.8246 22.674 13.0268 22.4718C13.229 22.2696 13.3301 22.019 13.3301 21.7201C13.3301 21.4212 13.229 21.1706 13.0268 20.9684C12.8246 20.7662 12.574 20.6651 12.2751 20.6651C11.9762 20.6651 11.7256 20.7662 11.5234 20.9684C11.3212 21.1706 11.2201 21.4212 11.2201 21.7201C11.2201 22.019 11.3212 22.2696 11.5234 22.4718C11.7256 22.674 11.9762 22.7751 12.2751 22.7751ZM11.2201 18.555H13.3301V12.2249H11.2201V18.555ZM16.4952 22.7751H22.8254C23.408 22.7751 23.8804 22.3028 23.8804 21.7201C23.8804 21.1374 23.408 20.6651 22.8254 20.6651H16.4952V22.7751ZM16.4952 18.555H22.8254C23.408 18.555 23.8804 18.0827 23.8804 17.5C23.8804 16.9173 23.408 16.445 22.8254 16.445H16.4952V18.555ZM16.4952 14.3349H22.8254C23.408 14.3349 23.8804 13.8626 23.8804 13.2799C23.8804 12.6972 23.408 12.2249 22.8254 12.2249H16.4952V14.3349ZM9.11005 28C8.52978 28 8.03304 27.7934 7.61983 27.3802C7.20661 26.967 7 26.4702 7 25.89V9.11005C7 8.52978 7.20661 8.03304 7.61983 7.61983C8.03304 7.20661 8.52978 7 9.11005 7H25.9904C26.5707 7 27.0674 7.20661 27.4807 7.61983C27.8939 8.03304 28.1005 8.52978 28.1005 9.11005V25.89C28.1005 26.4702 27.8939 26.967 27.4807 27.3802C27.0674 27.7934 26.5707 28 25.9904 28H9.11005ZM9.11005 25.89H25.9904V9.11005H9.11005V25.89Z" fill="#516875"/>
</svg>
