<svg width="24" height="24" viewBox="0 0 24 24" fill="none" xmlns="http://www.w3.org/2000/svg">
<path d="M3 13C4.8 9.66667 8.4 8 12 8C15.6 8 19.2 9.66667 21 13C19.2 16.3333 15.6 18 12 18C8.4 18 4.8 16.3333 3 13Z" stroke="#38B9FF" stroke-width="2"/>
<path d="M13 4.5C13 3.94772 12.5523 3.5 12 3.5C11.4477 3.5 11 3.94772 11 4.5H13ZM11 8.00001V9.00001H13V8.00001H11ZM11 4.5V8.00001H13V4.5H11Z" fill="#38B9FF"/>
<path d="M6.92652 5.62375C6.71872 5.11205 6.13546 4.86569 5.62375 5.07348C5.11205 5.28128 4.86569 5.86454 5.07348 6.37625L6.92652 5.62375ZM6.20222 9.15581L6.57847 10.0823L8.43151 9.32983L8.05526 8.40331L6.20222 9.15581ZM5.07348 6.37625L6.20222 9.15581L8.05526 8.40331L6.92652 5.62375L5.07348 6.37625Z" fill="#38B9FF"/>
<path d="M17.2024 5.62375C17.4102 5.11205 17.9935 4.86569 18.5052 5.07348C19.0169 5.28128 19.2632 5.86454 19.0554 6.37625L17.2024 5.62375ZM17.9267 9.15581L17.5504 10.0823L15.6974 9.32983L16.0736 8.40331L17.9267 9.15581ZM19.0554 6.37625L17.9267 9.15581L16.0736 8.40331L17.2024 5.62375L19.0554 6.37625Z" fill="#38B9FF"/>
<path d="M16 12C16 14.2091 14.2091 16 12 16C9.79086 16 8 14.2091 8 12C8 9.79086 9 8 12 8C15 8 16 9.79086 16 12Z" fill="#38B9FF"/>
</svg>
