<svg width="376" height="376" viewBox="0 0 376 376" fill="none" xmlns="http://www.w3.org/2000/svg">
<path fill-rule="evenodd" clip-rule="evenodd" d="M46 0H91V15H53C32.0132 15 15 32.0132 15 53V90H0V46C0 20.5949 20.5949 0 46 0ZM15 285H0V330C0 355.405 20.5949 376 46 376H91V361H53C32.0132 361 15 343.987 15 323V285ZM286 361V376H330C355.405 376 376 355.405 376 330V285H361V323C361 343.987 343.987 361 323 361H286ZM361 90H376V46C376 20.5949 355.405 0 330 0H286V15H323C343.987 15 361 32.0132 361 53V90Z" fill="white"/>
</svg>
