<svg width="36" height="36" viewBox="0 0 36 36" fill="none" xmlns="http://www.w3.org/2000/svg">
<path d="M19.201 29.6096C18.5378 29.6096 18.0001 29.072 18.0001 28.4087C18.0001 27.7454 18.5378 27.2077 19.201 27.2077H26.299V26.0068H24.4667C22.8596 26.0068 21.5567 24.7039 21.5567 23.0968V19.3092C21.5567 17.702 22.8596 16.3992 24.4667 16.3992H26.299V15.1982C26.299 12.8764 25.4888 10.8948 23.8686 9.25351C22.2483 7.6122 20.2922 6.79155 18.0001 6.79155C15.708 6.79155 13.7518 7.6122 12.1316 9.25351C10.5113 10.8948 9.70119 12.8764 9.70119 15.1982V16.3992H11.5334C13.1406 16.3992 14.4434 17.702 14.4434 19.3092V23.0968C14.4434 24.7039 13.1406 26.0068 11.5334 26.0068H9.70119C9.04913 26.0068 8.49093 25.7716 8.02659 25.3012C7.56225 24.8309 7.33008 24.2654 7.33008 23.6049V15.1982C7.33008 13.717 7.61165 12.3209 8.17479 11.0099C8.73793 9.69886 9.5036 8.55295 10.4718 7.57217C11.44 6.59139 12.5712 5.81578 13.8655 5.24533C15.1597 4.67487 16.5379 4.38965 18.0001 4.38965C19.4623 4.38965 20.8405 4.67487 22.1347 5.24533C23.4289 5.81578 24.5602 6.59139 25.5284 7.57217C26.4966 8.55295 27.2622 9.69886 27.8254 11.0099C28.3885 12.3209 28.6701 13.717 28.6701 15.1982V27.2077C28.6701 27.8683 28.4379 28.4337 27.9736 28.9041C27.5092 29.3745 26.951 29.6096 26.299 29.6096H19.201ZM9.70119 23.6049H11.3448C11.7466 23.6049 12.0723 23.2792 12.0723 22.8774V19.5286C12.0723 19.1268 11.7466 18.8011 11.3448 18.8011H9.70119V23.6049ZM23.9279 22.8774C23.9279 23.2792 24.2536 23.6049 24.6554 23.6049H26.299V18.8011H24.6554C24.2536 18.8011 23.9279 19.1268 23.9279 19.5286V22.8774Z" fill="#516875"/>
</svg>
