<svg width="18" height="19" viewBox="0 0 18 19" fill="none" xmlns="http://www.w3.org/2000/svg">
<mask id="mask0_367_4114" style="mask-type:alpha" maskUnits="userSpaceOnUse" x="0" y="0" width="18" height="19">
<rect y="0.5" width="18" height="18" fill="#D9D9D9"/>
</mask>
<g mask="url(#mask0_367_4114)">
<path fill-rule="evenodd" clip-rule="evenodd" d="M3.34323 3.84323C5.46509 3.84323 7.49978 3.00022 9 1.5C10.5002 3.00022 12.5349 3.84323 14.6568 3.84323C14.6568 5.96509 15.4998 7.99978 17 9.5C15.4998 11.0002 14.6568 13.0349 14.6568 15.1568C12.5349 15.1568 10.5002 15.9998 9 17.5C7.49978 15.9998 5.46509 15.1568 3.34323 15.1568C3.34323 13.0349 2.50022 11.0002 1 9.5C2.50022 7.99978 3.34323 5.96509 3.34323 3.84323ZM5.22882 5.72882C6.64339 5.72882 7.99986 5.16681 9 4.16667C10.0001 5.16681 11.3566 5.72882 12.7712 5.72882C12.7712 7.14339 13.3332 8.49986 14.3333 9.5C13.3332 10.5001 12.7712 11.8566 12.7712 13.2712C11.3566 13.2712 10.0001 13.8332 9 14.8333C7.99986 13.8332 6.64339 13.2712 5.22882 13.2712C5.22882 11.8566 4.66681 10.5001 3.66667 9.5C4.66681 8.49986 5.22882 7.14339 5.22882 5.72882Z" fill="#1CAFFF"/>
</g>
</svg>