<svg width="18" height="18" viewBox="0 0 18 18" fill="none" xmlns="http://www.w3.org/2000/svg">
<mask id="mask0_412_6985" style="mask-type:alpha" maskUnits="userSpaceOnUse" x="0" y="0" width="18" height="18">
<rect width="18" height="18" fill="#D9D9D9"/>
</mask>
<g mask="url(#mask0_412_6985)">
<path fill-rule="evenodd" clip-rule="evenodd" d="M3.34323 3.34323C5.46509 3.34323 7.49978 2.50022 9 1C10.5002 2.50022 12.5349 3.34323 14.6568 3.34323C14.6568 5.46509 15.4998 7.49978 17 9C15.4998 10.5002 14.6568 12.5349 14.6568 14.6568C12.5349 14.6568 10.5002 15.4998 9 17C7.49978 15.4998 5.46509 14.6568 3.34323 14.6568C3.34323 12.5349 2.50022 10.5002 1 9C2.50022 7.49978 3.34323 5.46509 3.34323 3.34323ZM5.22882 5.22882C6.64339 5.22882 7.99986 4.66681 9 3.66667C10.0001 4.66681 11.3566 5.22882 12.7712 5.22882C12.7712 6.64339 13.3332 7.99986 14.3333 9C13.3332 10.0001 12.7712 11.3566 12.7712 12.7712C11.3566 12.7712 10.0001 13.3332 9 14.3333C7.99986 13.3332 6.64339 12.7712 5.22882 12.7712C5.22882 11.3566 4.66681 10.0001 3.66667 9C4.66681 7.99986 5.22882 6.64339 5.22882 5.22882Z" fill="#38B9FF"/>
</g>
</svg>
