<svg width="36" height="36" viewBox="0 0 36 36" fill="none" xmlns="http://www.w3.org/2000/svg">
<path d="M18 7.34946C19.114 8.13979 20.314 8.80215 21.5903 9.33118C22.8667 9.86022 24.1849 10.2398 25.5312 10.4688C25.7602 11.8151 26.1398 13.1323 26.6688 14.4097C27.1978 15.6871 27.8602 16.8871 28.6505 18C27.8602 19.114 27.1978 20.314 26.6688 21.5903C26.1398 22.8677 25.7602 24.1849 25.5312 25.5312C24.1849 25.7602 22.8677 26.1398 21.5903 26.6688C20.3129 27.1978 19.1129 27.8602 18 28.6505C16.886 27.8602 15.686 27.1978 14.4097 26.6688C13.1323 26.1398 11.8151 25.7602 10.4688 25.5312C10.2398 24.1849 9.86022 22.8677 9.33118 21.5903C8.80215 20.3129 8.13979 19.1129 7.34946 18C8.13979 16.886 8.80215 15.686 9.33118 14.4097C9.86022 13.1323 10.2398 11.8151 10.4688 10.4688C11.8151 10.2398 13.1323 9.86022 14.4097 9.33118C15.6871 8.80215 16.8871 8.13979 18 7.34946ZM18 3C15.1871 5.8129 11.372 7.39355 7.39355 7.39355C7.39355 11.372 5.8129 15.1871 3 18C5.8129 20.8129 7.39355 24.628 7.39355 28.6065C11.372 28.6065 15.1871 30.1871 18 33C20.8129 30.1871 24.628 28.6065 28.6065 28.6065C28.6065 24.628 30.1871 20.8129 33 18C30.1871 15.1871 28.6065 11.372 28.6065 7.39355C24.628 7.39355 20.8129 5.8129 18 3Z" fill="#38B9FF"/>
</svg>
