<svg width="22" height="23" viewBox="0 0 22 23" fill="none" xmlns="http://www.w3.org/2000/svg">
<path d="M4.75 23C4.0625 23 3.47396 22.7606 2.98438 22.2819C2.49479 21.8032 2.25 21.2278 2.25 20.5556V3.66667H1.22222C0.547207 3.66667 0 3.11946 0 2.44444C0 1.76943 0.547207 1.22222 1.22222 1.22222H7.25C7.25 0.547208 7.79721 0 8.47222 0H13.5278C14.2028 0 14.75 0.547208 14.75 1.22222H20.7778C21.4528 1.22222 22 1.76943 22 2.44444C22 3.11946 21.4528 3.66667 20.7778 3.66667H19.75V20.5556C19.75 21.2278 19.5052 21.8032 19.0156 22.2819C18.526 22.7606 17.9375 23 17.25 23H4.75ZM17.25 3.66667H4.75V20.5556H17.25V3.66667ZM7.25 18.1111H9.75V6.11111H7.25V18.1111ZM12.25 18.1111H14.75V6.11111H12.25V18.1111Z" fill="#3E4E5B"/>
</svg>
